<svg width="1024" height="1024" viewBox="0 0 1024 1024" fill="none" xmlns="http://www.w3.org/2000/svg">
<rect width="1024" height="1024" fill="white"/>
<path d="M383.351 303.907C431.361 192.364 590.333 194.748 634.978 307.681L693.104 454.72C698.647 468.74 706.468 481.749 716.251 493.22L790.372 580.129C870.165 673.688 794.838 816.711 672.55 803.839L528.079 788.631C518.553 787.628 508.947 787.628 499.421 788.631L341.991 805.203C221.482 817.888 145.708 678.634 221.809 584.336L297.536 490.501C305.358 480.809 311.821 470.094 316.745 458.654L383.351 303.907Z" fill="#00E599" stroke="black" stroke-width="0.75"/>
<ellipse cx="512" cy="589" rx="135" ry="139" fill="black"/>
<path d="M564.5 588.613C564.5 616.503 541.89 639.113 514 639.113C486.11 639.113 463.5 616.503 463.5 588.613C463.5 560.722 486.11 538.113 514 538.113C541.89 538.113 564.5 560.722 564.5 588.613Z" fill="#00E599"/>
</svg>
